<?xml version="1.0" encoding="UTF-8"?>
<svg xmlns="http://www.w3.org/2000/svg" version="1.2" width="589" height="589" baseProfile="tiny-ps" viewBox="0 0 589 589">
  <path d="M0 0 C194.37 0 388.74 0 589 0 C589 194.37 589 388.74 589 589 C394.63 589 200.26 589 0 589 C0 394.63 0 200.26 0 0 Z " fill="#FFFFFF" transform="translate(0,0)"/>
  <path d="M0 0 C11.09086116 8.7306952 16.54251079 21.35601993 19 35 C19.13019531 35.70898438 19.26039063 36.41796875 19.39453125 37.1484375 C26.33356524 85.4441141 4.1493448 129.24262433 -23.53515625 166.85546875 C-28.41164417 173.35793017 -33.49547913 179.67508964 -38.75 185.875 C-39.19287354 186.40109863 -39.63574707 186.92719727 -40.09204102 187.46923828 C-42.23441412 189.99646645 -44.42044429 192.43675463 -46.71875 194.82421875 C-47.5540625 195.72785156 -48.389375 196.63148438 -49.25 197.5625 C-49.99765625 198.32691406 -50.7453125 199.09132812 -51.515625 199.87890625 C-53.92381475 204.94244208 -52.77193803 209.56387335 -52 215 C-51.8107028 216.41031224 -51.62209899 217.82071768 -51.43408203 219.23120117 C-50.68614247 224.74280784 -49.88548588 230.2466062 -49.08129883 235.75024414 C-48.73625206 238.12067964 -48.39716767 240.49191388 -48.05859375 242.86328125 C-47.95236191 243.57696365 -47.84613007 244.29064606 -47.73667908 245.0259552 C-47.11315282 249.4122237 -46.90236482 253.58552099 -47 258 C-45.87464844 257.67773438 -44.74929688 257.35546875 -43.58984375 257.0234375 C-23.75266404 252.10008739 -3.10973562 257.83807009 14 268 C16.848345 269.83203411 19.43333157 271.79582233 22 274 C22.95712891 274.74443359 22.95712891 274.74443359 23.93359375 275.50390625 C38.02484497 286.90326153 47.87056283 305.02391379 50 323 C51.04332808 337.0563917 51.00934402 350.69625252 46 364 C45.76394043 364.66757324 45.52788086 365.33514648 45.28466797 366.02294922 C37.62539745 387.55878335 23.52993694 407.67263885 2.75 418.125 C1.92169678 418.55022949 1.09339355 418.97545898 0.23999023 419.41357422 C-16.67451161 428 -16.67451161 428 -23 428 C-22.87565582 428.65026657 -22.75131165 429.30053314 -22.62319946 429.97050476 C-21.29180216 437.08841415 -20.22207123 444.21642006 -19.2734375 451.39453125 C-19.12089508 452.54434982 -18.96835266 453.6941684 -18.81118774 454.87882996 C-18.49201061 457.29637183 -18.17443708 459.71412592 -17.85839844 462.13208008 C-17.37756086 465.79300254 -16.88419146 469.45210309 -16.390625 473.11132812 C-13.18519453 497.30430096 -11.37413149 521.96580653 -27.08203125 542.6640625 C-28.03142578 543.82035156 -28.03142578 543.82035156 -29 545 C-29.93392578 546.15628906 -29.93392578 546.15628906 -30.88671875 547.3359375 C-38.92141324 556.30418697 -51.85810268 563.25661853 -64 564 C-81.57445035 564.92850909 -98.23508302 563.78147101 -112.125 551.8125 C-121.06371602 543.3235307 -128.12047211 534.48006517 -130 522 C-130.0825935 509.39623146 -126.89316833 499.11985693 -118 490 C-108.37967807 482.17301334 -98.99796523 481.09249182 -87 482 C-78.74559355 483.64866831 -72.40520505 488.70168018 -67 495 C-60.73519192 505.12789461 -58.79176768 514.19649968 -60 526 C-64.03515622 538.56662936 -72.71637317 545.84359332 -84 552 C-84.66 552 -85.32 552 -86 552 C-85.65213292 553.97536745 -85.65213292 553.97536745 -85 556 C-77.24158724 559.87920638 -62.02117464 555.08800246 -53.9375 552.67285156 C-45.5867466 549.77281674 -39.46106048 544.51771303 -35 537 C-34.34257812 535.94425781 -34.34257812 535.94425781 -33.671875 534.8671875 C-27.6757725 524.21146319 -25.67768298 512.25618547 -25.76953125 500.1796875 C-25.77343872 499.24182404 -25.77734619 498.30396057 -25.78137207 497.337677 C-25.92463824 484.81680029 -26.99539009 472.35003008 -28 459.875 C-28.28726924 456.21231716 -28.57217476 452.54945968 -28.85595703 448.88650513 C-29.03146464 446.63148325 -29.20941016 444.3766494 -29.39013672 442.12203979 C-29.47021973 441.11223053 -29.55030273 440.10242126 -29.6328125 439.06201172 C-29.70387207 438.17794647 -29.77493164 437.29388123 -29.84814453 436.38302612 C-29.98349192 434.25905677 -30 432.12827741 -30 430 C-30.88812378 430.10501831 -30.88812378 430.10501831 -31.79418945 430.2121582 C-63.18450464 433.67007643 -96.67370685 429.20862747 -122.1875 409.125 C-123.80118143 407.76117892 -125.40543584 406.3861244 -127 405 C-127.80953125 404.33484375 -128.6190625 403.6696875 -129.453125 402.984375 C-149.58637299 385.89010784 -163.01517542 360.17664741 -166 334 C-167.66746428 304.13462597 -161.52903587 276.1645773 -147 250 C-146.66806641 249.38495605 -146.33613281 248.76991211 -145.99414062 248.13623047 C-136.72013952 231.06363753 -123.41290625 216.90008969 -110 203 C-109.21625 202.18660156 -108.4325 201.37320313 -107.625 200.53515625 C-103.88537038 196.72979096 -99.97838663 193.1919464 -95.93359375 189.71484375 C-93.43568444 187.4995262 -91.11975011 185.1310183 -88.78125 182.75 C-86.91610326 180.91757513 -84.98072254 179.20646865 -83 177.5 C-79.14370244 174.17534735 -75.55777181 170.63883496 -72 167 C-71.00068794 165.99931253 -70.00078305 164.99921634 -69 164 C-69.1858667 163.40912598 -69.3717334 162.81825195 -69.56323242 162.20947266 C-73.26653203 150.31098215 -76.53226217 138.43375079 -78.875 126.1875 C-79.07762451 125.13449707 -79.28024902 124.08149414 -79.48901367 122.99658203 C-85.86768575 88.28140941 -76.89923586 58.00860434 -57.12426758 29.06860352 C-52.55229722 22.6417552 -47.52818539 16.62620286 -42 11 C-41.29359375 10.28070313 -40.5871875 9.56140625 -39.859375 8.8203125 C-29.27305419 -1.27096453 -13.40191739 -9.28019562 0 0 Z " fill="#000000" transform="translate(351,12)"/>
  <path d="M0 0 C0.33 0 0.66 0 1 0 C3.31 16.17 5.62 32.34 8 49 C5.28033329 50.81311114 2.54884337 52.20827313 -0.39428711 53.61279297 C-21.09361115 63.56286804 -35.19043577 78.08705556 -43.0390625 100 C-48.03913425 115.6099801 -48.90748315 132.06478211 -42.375 147.36328125 C-35.80768679 159.95685062 -24.6353593 171.29888548 -11 176 C-7.65980544 176.60939078 -4.39260802 176.92059854 -1 177 C-0.67 176.01 -0.34 175.02 0 174 C-0.61746094 173.731875 -1.23492187 173.46375 -1.87109375 173.1875 C-10.46291438 169.21198482 -18.47594691 164.05392897 -22.29296875 155.04296875 C-27.32673387 140.49789054 -25.73198206 125.64849539 -19.3125 111.8125 C-13.2289237 100.40393515 -3.76350323 91.42883486 8.70141602 87.39208984 C9.50764908 87.12923187 10.31388214 86.8663739 11.14454651 86.59555054 C11.75684616 86.39901886 12.36914581 86.20248718 13 86 C14.62822286 97.45959009 16.25425654 108.91948868 17.87771988 120.37975407 C18.63214533 125.70489291 19.38724206 131.02993452 20.14404297 136.35473633 C23.58251326 160.55116792 26.97489863 184.74789506 30 209 C7.98211703 214.72416532 -17.15900719 209.26360253 -37.02734375 198.78125 C-47.14239524 192.72019418 -55.1268482 185.6391763 -62 176 C-62.55171875 175.23429688 -63.1034375 174.46859375 -63.671875 173.6796875 C-76.68131105 153.89729764 -80.56342453 124.98906539 -76.4140625 102.04296875 C-75.53241858 98.82779943 -74.42910107 96.01228311 -73 93 C-72.69916504 92.35836914 -72.39833008 91.71673828 -72.08837891 91.05566406 C-62.66287608 71.29000505 -48.69901505 54.21296569 -33.96875 38.1484375 C-32.15344263 36.16744732 -30.38307216 34.15673433 -28.625 32.125 C-22.87458757 25.52660048 -16.89346493 19.13025335 -10.953125 12.703125 C-10.2111084 11.8982666 -10.2111084 11.8982666 -9.45410156 11.07714844 C-8.07500694 9.58135407 -6.69381328 8.08749576 -5.3125 6.59375 C-3.02208104 4.10018783 -3.02208104 4.10018783 -1.25 1.65625 C-0.8375 1.1096875 -0.425 0.563125 0 0 Z " fill="#FFFFFF" transform="translate(290,222)"/>
  <path d="M0 0 C13.46197585 7.19519399 22.23481672 16.98149636 27.23828125 31.421875 C32.67157336 49.81147907 29.80037502 74.09927979 21 91 C13.37372561 104.6059668 1.74391894 113.2642935 -13 118 C-15.09109868 102.97978925 -17.177528 87.95893502 -19.25842285 72.93730736 C-20.22475872 65.96229035 -21.19261286 58.98749037 -22.1640625 52.01318359 C-23.1014447 45.28342507 -24.03456746 38.55308694 -24.96508789 31.82237625 C-25.3209105 29.25375389 -25.67816337 26.68532925 -26.03686523 24.11710739 C-26.53877399 20.52178013 -27.03560684 16.92578544 -27.53125 13.32958984 C-27.68086182 12.26647583 -27.83047363 11.20336182 -27.98461914 10.10803223 C-28.63273608 5.36947707 -29.19213005 0.7969278 -29 -4 C-19.88994767 -7.03668411 -8.48950673 -3.80762429 0 0 Z " fill="#FFFFFF" transform="translate(339,311)"/>
  <path d="M0 0 C4.87134505 2.62303195 6.86188517 7.72955922 8.6875 12.75 C13.82349931 37.14599675 8.81094536 60.81646892 -4.453125 81.63769531 C-13.90699805 95.91004767 -26.09742604 107.92453736 -38.10098267 120.02520752 C-39.15765431 121.09072084 -40.2129768 122.15757385 -41.26693726 123.22576904 C-42.75866092 124.73525936 -44.25711882 126.23771472 -45.7578125 127.73828125 C-46.63453613 128.61911377 -47.51125977 129.49994629 -48.41455078 130.4074707 C-50.5625 132.3125 -50.5625 132.3125 -52.5625 132.3125 C-61.70734654 96.95787005 -52.5466698 68.18790525 -34.5625 37.3125 C-27.32527543 25.41779372 -18.67455435 14.87020733 -8.5625 5.3125 C-7.99402344 4.75046875 -7.42554688 4.1884375 -6.83984375 3.609375 C-4.60210771 1.52616293 -3.07003003 0.37439391 0 0 Z " fill="#FFFFFF" transform="translate(341.5625,34.6875)"/>
<title>Maestrosoft</title></svg>
